# File created by Blade
# Date/Time:  Thu Jan 22 16:00:44 2015
# Frame Rate: 120.000 fps
#------------------------------------------------------
:FULLY-SPECIFIED
:DEGREES
965
root 1.929701 37.053339 7.103797 -5.188035 -5.425314 1.713544
RightUpLeg 14.211479 0.810464 -3.473435
RightLeg -5.140377 -0.000000 0.000000
RightFoot -10.689084 -7.444339 16.191531
RightToeBase 13.283754 -0.000000 -0.000000
LeftUpLeg 11.346309 6.863072 4.967732
LeftLeg 0.563441 -0.000000 -0.000000
LeftFoot -8.659125 7.543014 -18.979314
LeftToeBase 7.486898 -0.000000 -0.000000
Spine 8.861271 -5.513100 -1.600814
RightShoulder 3.751916 -17.399900 -11.772247
RightArm 46.788142 -19.858113 34.947306
RightForeArm 3.091279 -0.000000 66.063271
RightHand 4.091858 -0.000000 8.761053
RightHandThumb1 -24.326973 -0.000000 -32.862282
LeftShoulder -17.451119 30.140702 5.590859
LeftArm 61.838569 8.129729 -38.411276
LeftForeArm 26.049104 0.000000 52.108585
LeftHand -16.213368 0.000000 -13.859933
LeftHandThumb1 -26.253704 0.000000 33.147579
Head -9.116557 20.158921 -1.402757
966
root 1.931448 37.050383 7.099710 -5.207191 -5.421624 1.689978
RightUpLeg 14.240973 0.971232 -3.432934
RightLeg -5.165035 -0.000000 0.000000
RightFoot -10.736880 -7.514817 16.308115
RightToeBase 13.419700 -0.000000 -0.000000
LeftUpLeg 11.389038 6.868412 5.000161
LeftLeg 0.511475 -0.000000 -0.000000
LeftFoot -8.651300 7.498438 -18.952744
LeftToeBase 7.508484 -0.000000 -0.000000
Spine 8.840798 -5.426426 -1.542459
RightShoulder 3.631526 -17.731764 -11.315829
RightArm 46.790048 -20.266094 35.536945
RightForeArm 2.970934 -0.000000 66.278939
RightHand 3.898184 -0.000000 9.432081
RightHandThumb1 -24.326973 -0.000000 -32.862282
LeftShoulder -17.837971 30.247237 4.877905
LeftArm 62.025411 8.686604 -38.844314
LeftForeArm 26.480475 -0.000000 52.795832
LeftHand -16.016875 -0.000000 -14.267567
LeftHandThumb1 -26.253704 0.000000 33.147579
Head -9.134371 20.092522 -1.497536
967
root 1.936289 37.047385 7.091378 -5.208793 -5.407235 1.674382
RightUpLeg 14.226760 1.082140 -3.411303
RightLeg -5.143319 -0.000000 0.000000
RightFoot -10.776830 -7.564119 16.351349
RightToeBase 13.403321 -0.000000 -0.000000
LeftUpLeg 11.400226 6.852839 5.013258
LeftLeg 0.467114 -0.000000 -0.000000
LeftFoot -8.642636 7.465026 -18.980616
LeftToeBase 7.478227 -0.000000 -0.000000
Spine 8.813651 -5.370341 -1.490028
RightShoulder 3.521700 -18.102631 -10.880001
RightArm 46.808691 -20.661973 36.130045
RightForeArm 2.998070 -0.000000 66.395128
RightHand 3.717370 -0.000000 9.919537
RightHandThumb1 -24.326973 -0.000000 -32.862282
LeftShoulder -18.213389 30.396669 4.178093
LeftArm 62.190427 9.229271 -39.363840
LeftForeArm 26.804959 0.000000 53.385664
LeftHand -15.917343 -0.000000 -14.825258
LeftHandThumb1 -26.253704 0.000000 33.147579
Head -9.150317 20.043203 -1.563084
968
root 1.942809 37.044918 7.079794 -5.185404 -5.388956 1.663704
RightUpLeg 14.173272 1.180080 -3.395849
RightLeg -5.104710 -0.000000 0.000000
RightFoot -10.828371 -7.621975 16.377656
RightToeBase 13.434068 -0.000000 -0.000000
LeftUpLeg 11.371946 6.806510 5.008679
LeftLeg 0.442077 -0.000000 -0.000000
LeftFoot -8.675828 7.470193 -18.929022
LeftToeBase 7.585351 -0.000000 -0.000000
Spine 8.761623 -5.290560 -1.433077
RightShoulder 3.379613 -18.441961 -10.448519
RightArm 46.821555 -21.091261 36.665080
RightForeArm 3.124560 -0.000000 66.385689
RightHand 3.679326 0.000000 10.552252
RightHandThumb1 -24.326973 -0.000000 -32.862282
LeftShoulder -18.563135 30.525271 3.496440
LeftArm 62.350553 9.837740 -39.851526
LeftForeArm 26.761275 -0.000000 53.801842
LeftHand -15.622322 -0.000000 -15.079961
LeftHandThumb1 -26.253704 0.000000 33.147579
Head -9.151869 19.990623 -1.630358
969
root 1.947154 37.044017 7.077869 -5.252986 -5.400106 1.651948
RightUpLeg 14.228554 1.237566 -3.375303
RightLeg -5.085492 -0.000000 0.000000
RightFoot -10.855198 -7.671554 16.345862
RightToeBase 13.495054 -0.000000 -0.000000
LeftUpLeg 11.473761 6.800403 5.028700
LeftLeg 0.376117 -0.000000 -0.000000
LeftFoot -8.661955 7.452352 -18.933672
LeftToeBase 7.633764 -0.000000 -0.000000
Spine 8.812859 -5.176518 -1.390603
RightShoulder 3.235669 -18.755505 -10.009178
RightArm 46.845982 -21.572469 37.078945
RightForeArm 3.507738 -0.000000 66.288886
RightHand 3.565826 -0.000000 10.980289
RightHandThumb1 -24.326973 -0.000000 -32.862282
LeftShoulder -18.864621 30.628582 2.863600
LeftArm 62.433513 10.440530 -40.480479
LeftForeArm 26.793116 0.000000 54.135818
LeftHand -15.533610 -0.000000 -15.864088
LeftHandThumb1 -26.253704 0.000000 33.147579
Head -9.174684 19.953684 -1.681468
970
root 1.952449 37.043109 7.072305 -5.290254 -5.376463 1.641810
RightUpLeg 14.237568 1.284034 -3.361082
RightLeg -5.032819 -0.000000 0.000000
RightFoot -10.904770 -7.717431 16.360321
RightToeBase 13.498026 -0.000000 -0.000000
LeftUpLeg 11.523733 6.767685 5.038467
LeftLeg 0.331645 -0.000000 -0.000000
LeftFoot -8.643511 7.413668 -18.929295
LeftToeBase 7.629092 -0.000000 -0.000000
Spine 8.830311 -5.087688 -1.353649
RightShoulder 3.075324 -19.061570 -9.567209
RightArm 46.846436 -22.072888 37.512298
RightForeArm 3.874652 -0.000000 66.094409
RightHand 3.515411 0.000000 11.425008
RightHandThumb1 -24.326973 -0.000000 -32.862282
LeftShoulder -19.158088 30.745028 2.265961
LeftArm 62.512367 11.066871 -41.154293
LeftForeArm 26.634432 -0.000000 54.292000
LeftHand -15.167364 -0.000000 -16.667878
LeftHandThumb1 -26.253704 0.000000 33.147579
Head -9.188346 19.868031 -1.706277
971
root 1.959059 37.042300 7.062712 -5.292234 -5.370080 1.644775
RightUpLeg 14.203357 1.372888 -3.362683
RightLeg -4.986013 -0.000000 0.000000
RightFoot -10.950876 -7.747310 16.412544
RightToeBase 13.565248 -0.000000 -0.000000
LeftUpLeg 11.526371 6.719434 5.020640
LeftLeg 0.296762 -0.000000 -0.000000
LeftFoot -8.642882 7.417451 -19.012694
LeftToeBase 7.622735 -0.000000 -0.000000
Spine 8.810591 -5.018439 -1.333066
RightShoulder 2.931126 -19.346848 -9.161686
RightArm 46.883496 -22.594781 37.924027
RightForeArm 4.514319 0.000000 65.738250
RightHand 3.530586 -0.000000 11.864542
RightHandThumb1 -24.326973 -0.000000 -32.862282
LeftShoulder -19.458429 30.831258 1.691883
LeftArm 62.535512 11.713869 -41.905101
LeftForeArm 26.425165 0.000000 54.284833
LeftHand -14.852402 0.000000 -17.542670
LeftHandThumb1 -26.253704 0.000000 33.147579
Head -9.190569 19.771590 -1.714784
972
root 1.963528 37.041735 7.041090 -5.198230 -5.359232 1.637726
RightUpLeg 14.038699 1.480928 -3.343884
RightLeg -4.898602 -0.000000 0.000000
RightFoot -11.016370 -7.813802 16.441474
RightToeBase 13.560672 -0.000000 -0.000000
LeftUpLeg 11.389458 6.650282 4.995424
LeftLeg 0.313764 -0.000000 -0.000000
LeftFoot -8.685788 7.479767 -18.944189
LeftToeBase 7.781298 -0.000000 -0.000000
Spine 8.688970 -4.926161 -1.307057
RightShoulder 2.825522 -19.516920 -8.787255
RightArm 46.750100 -23.194552 38.458310
RightForeArm 5.253154 -0.000000 65.303806
RightHand 3.483565 0.000000 12.254347
RightHandThumb1 -24.326973 -0.000000 -32.862282
LeftShoulder -19.731304 30.960957 1.126239
LeftArm 62.516289 12.326453 -42.816241
LeftForeArm 26.118743 -0.000000 54.165027
LeftHand -14.608232 -0.000000 -18.378679
LeftHandThumb1 -26.253704 0.000000 33.147579
Head -9.160564 19.649885 -1.667866
